<mxfile host="app.diagrams.net" agent="Mozilla/5.0 (Windows NT 10.0; Win64; x64) AppleWebKit/537.36 (KHTML, like Gecko) Chrome/141.0.0.0 Safari/537.36" version="28.2.8">
  <diagram name="Trang-1" id="TgmhpCta32eSLXZxmIxE">
    <mxGraphModel dx="2026" dy="1951" grid="1" gridSize="10" guides="1" tooltips="1" connect="1" arrows="1" fold="1" page="1" pageScale="1" pageWidth="827" pageHeight="1169" math="0" shadow="0">
      <root>
        <mxCell id="0" />
        <mxCell id="1" parent="0" />
        <mxCell id="N9tiopGYlUA52_8RB_P--34" style="edgeStyle=orthogonalEdgeStyle;rounded=0;orthogonalLoop=1;jettySize=auto;html=1;exitX=0;exitY=0.5;exitDx=0;exitDy=0;entryX=1;entryY=0.5;entryDx=0;entryDy=0;" edge="1" parent="1" source="N9tiopGYlUA52_8RB_P--1" target="N9tiopGYlUA52_8RB_P--12">
          <mxGeometry relative="1" as="geometry" />
        </mxCell>
        <mxCell id="N9tiopGYlUA52_8RB_P--35" style="edgeStyle=orthogonalEdgeStyle;rounded=0;orthogonalLoop=1;jettySize=auto;html=1;exitX=1;exitY=0.5;exitDx=0;exitDy=0;entryX=0;entryY=0.5;entryDx=0;entryDy=0;" edge="1" parent="1" source="N9tiopGYlUA52_8RB_P--1" target="N9tiopGYlUA52_8RB_P--13">
          <mxGeometry relative="1" as="geometry" />
        </mxCell>
        <mxCell id="N9tiopGYlUA52_8RB_P--36" style="edgeStyle=orthogonalEdgeStyle;rounded=0;orthogonalLoop=1;jettySize=auto;html=1;exitX=0.25;exitY=1;exitDx=0;exitDy=0;entryX=1;entryY=0.5;entryDx=0;entryDy=0;" edge="1" parent="1" source="N9tiopGYlUA52_8RB_P--1" target="N9tiopGYlUA52_8RB_P--15">
          <mxGeometry relative="1" as="geometry" />
        </mxCell>
        <mxCell id="N9tiopGYlUA52_8RB_P--37" style="edgeStyle=orthogonalEdgeStyle;rounded=0;orthogonalLoop=1;jettySize=auto;html=1;exitX=0.75;exitY=1;exitDx=0;exitDy=0;entryX=0;entryY=0.5;entryDx=0;entryDy=0;" edge="1" parent="1" source="N9tiopGYlUA52_8RB_P--1" target="N9tiopGYlUA52_8RB_P--14">
          <mxGeometry relative="1" as="geometry" />
        </mxCell>
        <mxCell id="N9tiopGYlUA52_8RB_P--1" value="Môn học" style="rounded=0;whiteSpace=wrap;html=1;" vertex="1" parent="1">
          <mxGeometry x="-320" y="350" width="120" height="60" as="geometry" />
        </mxCell>
        <mxCell id="N9tiopGYlUA52_8RB_P--28" style="edgeStyle=orthogonalEdgeStyle;rounded=0;orthogonalLoop=1;jettySize=auto;html=1;exitX=0;exitY=0.5;exitDx=0;exitDy=0;entryX=1;entryY=0.5;entryDx=0;entryDy=0;" edge="1" parent="1" source="N9tiopGYlUA52_8RB_P--2" target="N9tiopGYlUA52_8RB_P--6">
          <mxGeometry relative="1" as="geometry" />
        </mxCell>
        <mxCell id="N9tiopGYlUA52_8RB_P--29" style="edgeStyle=orthogonalEdgeStyle;rounded=0;orthogonalLoop=1;jettySize=auto;html=1;exitX=0.25;exitY=0;exitDx=0;exitDy=0;entryX=0.5;entryY=1;entryDx=0;entryDy=0;" edge="1" parent="1" source="N9tiopGYlUA52_8RB_P--2" target="N9tiopGYlUA52_8RB_P--10">
          <mxGeometry relative="1" as="geometry" />
        </mxCell>
        <mxCell id="N9tiopGYlUA52_8RB_P--30" style="edgeStyle=orthogonalEdgeStyle;rounded=0;orthogonalLoop=1;jettySize=auto;html=1;exitX=0.75;exitY=0;exitDx=0;exitDy=0;entryX=0.5;entryY=1;entryDx=0;entryDy=0;" edge="1" parent="1" source="N9tiopGYlUA52_8RB_P--2" target="N9tiopGYlUA52_8RB_P--8">
          <mxGeometry relative="1" as="geometry">
            <Array as="points">
              <mxPoint x="250" y="-10" />
              <mxPoint x="240" y="-10" />
            </Array>
          </mxGeometry>
        </mxCell>
        <mxCell id="N9tiopGYlUA52_8RB_P--31" style="edgeStyle=orthogonalEdgeStyle;rounded=0;orthogonalLoop=1;jettySize=auto;html=1;exitX=0;exitY=0;exitDx=0;exitDy=0;entryX=0.5;entryY=1;entryDx=0;entryDy=0;" edge="1" parent="1" source="N9tiopGYlUA52_8RB_P--2" target="N9tiopGYlUA52_8RB_P--7">
          <mxGeometry relative="1" as="geometry">
            <Array as="points">
              <mxPoint x="160" y="59" />
              <mxPoint x="80" y="59" />
            </Array>
          </mxGeometry>
        </mxCell>
        <mxCell id="N9tiopGYlUA52_8RB_P--32" style="edgeStyle=orthogonalEdgeStyle;rounded=0;orthogonalLoop=1;jettySize=auto;html=1;exitX=1;exitY=0;exitDx=0;exitDy=0;entryX=0.5;entryY=1;entryDx=0;entryDy=0;" edge="1" parent="1" source="N9tiopGYlUA52_8RB_P--2" target="N9tiopGYlUA52_8RB_P--11">
          <mxGeometry relative="1" as="geometry">
            <Array as="points">
              <mxPoint x="280" y="60" />
              <mxPoint x="360" y="60" />
            </Array>
          </mxGeometry>
        </mxCell>
        <mxCell id="N9tiopGYlUA52_8RB_P--33" style="edgeStyle=orthogonalEdgeStyle;rounded=0;orthogonalLoop=1;jettySize=auto;html=1;exitX=1;exitY=0.5;exitDx=0;exitDy=0;entryX=0;entryY=0.5;entryDx=0;entryDy=0;" edge="1" parent="1" source="N9tiopGYlUA52_8RB_P--2" target="N9tiopGYlUA52_8RB_P--9">
          <mxGeometry relative="1" as="geometry" />
        </mxCell>
        <mxCell id="N9tiopGYlUA52_8RB_P--2" value="Sinh viên" style="rounded=0;whiteSpace=wrap;html=1;" vertex="1" parent="1">
          <mxGeometry x="160" y="69.25" width="120" height="60" as="geometry" />
        </mxCell>
        <mxCell id="N9tiopGYlUA52_8RB_P--38" style="edgeStyle=orthogonalEdgeStyle;rounded=0;orthogonalLoop=1;jettySize=auto;html=1;exitX=0;exitY=0.5;exitDx=0;exitDy=0;entryX=1;entryY=0.5;entryDx=0;entryDy=0;" edge="1" parent="1" source="N9tiopGYlUA52_8RB_P--4" target="N9tiopGYlUA52_8RB_P--24">
          <mxGeometry relative="1" as="geometry" />
        </mxCell>
        <mxCell id="N9tiopGYlUA52_8RB_P--39" style="edgeStyle=orthogonalEdgeStyle;rounded=0;orthogonalLoop=1;jettySize=auto;html=1;exitX=0.75;exitY=1;exitDx=0;exitDy=0;entryX=0;entryY=0.5;entryDx=0;entryDy=0;" edge="1" parent="1" source="N9tiopGYlUA52_8RB_P--4" target="N9tiopGYlUA52_8RB_P--25">
          <mxGeometry relative="1" as="geometry" />
        </mxCell>
        <mxCell id="N9tiopGYlUA52_8RB_P--40" style="edgeStyle=orthogonalEdgeStyle;rounded=0;orthogonalLoop=1;jettySize=auto;html=1;exitX=0.25;exitY=1;exitDx=0;exitDy=0;entryX=1;entryY=0.5;entryDx=0;entryDy=0;" edge="1" parent="1" source="N9tiopGYlUA52_8RB_P--4" target="N9tiopGYlUA52_8RB_P--23">
          <mxGeometry relative="1" as="geometry" />
        </mxCell>
        <mxCell id="N9tiopGYlUA52_8RB_P--41" style="edgeStyle=orthogonalEdgeStyle;rounded=0;orthogonalLoop=1;jettySize=auto;html=1;exitX=1;exitY=0.5;exitDx=0;exitDy=0;entryX=0;entryY=0.5;entryDx=0;entryDy=0;" edge="1" parent="1" source="N9tiopGYlUA52_8RB_P--4" target="N9tiopGYlUA52_8RB_P--26">
          <mxGeometry relative="1" as="geometry" />
        </mxCell>
        <mxCell id="N9tiopGYlUA52_8RB_P--4" value="Lớp học phần" style="rounded=0;whiteSpace=wrap;html=1;" vertex="1" parent="1">
          <mxGeometry x="159" y="350" width="120" height="60" as="geometry" />
        </mxCell>
        <mxCell id="N9tiopGYlUA52_8RB_P--6" value="&lt;u&gt;Mã sinh viên&lt;/u&gt;" style="ellipse;whiteSpace=wrap;html=1;" vertex="1" parent="1">
          <mxGeometry x="40" y="79.25" width="80" height="40" as="geometry" />
        </mxCell>
        <mxCell id="N9tiopGYlUA52_8RB_P--7" value="Họ tên" style="ellipse;whiteSpace=wrap;html=1;" vertex="1" parent="1">
          <mxGeometry x="40" y="-0.75" width="80" height="40" as="geometry" />
        </mxCell>
        <mxCell id="N9tiopGYlUA52_8RB_P--8" value="Giới tính" style="ellipse;whiteSpace=wrap;html=1;" vertex="1" parent="1">
          <mxGeometry x="200" y="-80.75" width="80" height="40" as="geometry" />
        </mxCell>
        <mxCell id="N9tiopGYlUA52_8RB_P--9" value="Ngày sinh" style="ellipse;whiteSpace=wrap;html=1;" vertex="1" parent="1">
          <mxGeometry x="320" y="80" width="80" height="40" as="geometry" />
        </mxCell>
        <mxCell id="N9tiopGYlUA52_8RB_P--10" value="email" style="ellipse;whiteSpace=wrap;html=1;" vertex="1" parent="1">
          <mxGeometry x="160" width="80" height="39.25" as="geometry" />
        </mxCell>
        <mxCell id="N9tiopGYlUA52_8RB_P--11" value="Khoa" style="ellipse;whiteSpace=wrap;html=1;" vertex="1" parent="1">
          <mxGeometry x="320" width="80" height="39.25" as="geometry" />
        </mxCell>
        <mxCell id="N9tiopGYlUA52_8RB_P--12" value="Mã môn" style="ellipse;whiteSpace=wrap;html=1;fontStyle=4" vertex="1" parent="1">
          <mxGeometry x="-440" y="360.75" width="80" height="39.25" as="geometry" />
        </mxCell>
        <mxCell id="N9tiopGYlUA52_8RB_P--13" value="Tên môn" style="ellipse;whiteSpace=wrap;html=1;" vertex="1" parent="1">
          <mxGeometry x="-160" y="360.75" width="80" height="40" as="geometry" />
        </mxCell>
        <mxCell id="N9tiopGYlUA52_8RB_P--14" value="Số tín chỉ" style="ellipse;whiteSpace=wrap;html=1;" vertex="1" parent="1">
          <mxGeometry x="-160" y="439.75" width="80" height="40.25" as="geometry" />
        </mxCell>
        <mxCell id="N9tiopGYlUA52_8RB_P--15" value="Khoa phụ trách" style="ellipse;whiteSpace=wrap;html=1;" vertex="1" parent="1">
          <mxGeometry x="-440" y="440" width="80" height="40" as="geometry" />
        </mxCell>
        <mxCell id="N9tiopGYlUA52_8RB_P--42" style="edgeStyle=orthogonalEdgeStyle;rounded=0;orthogonalLoop=1;jettySize=auto;html=1;entryX=0;entryY=0.5;entryDx=0;entryDy=0;" edge="1" parent="1" source="N9tiopGYlUA52_8RB_P--16" target="N9tiopGYlUA52_8RB_P--21">
          <mxGeometry relative="1" as="geometry" />
        </mxCell>
        <mxCell id="N9tiopGYlUA52_8RB_P--43" style="edgeStyle=orthogonalEdgeStyle;rounded=0;orthogonalLoop=1;jettySize=auto;html=1;exitX=0.5;exitY=1;exitDx=0;exitDy=0;entryX=0.5;entryY=0;entryDx=0;entryDy=0;" edge="1" parent="1" source="N9tiopGYlUA52_8RB_P--16" target="N9tiopGYlUA52_8RB_P--17">
          <mxGeometry relative="1" as="geometry" />
        </mxCell>
        <mxCell id="N9tiopGYlUA52_8RB_P--44" style="edgeStyle=orthogonalEdgeStyle;rounded=0;orthogonalLoop=1;jettySize=auto;html=1;exitX=0.25;exitY=1;exitDx=0;exitDy=0;entryX=1;entryY=0.5;entryDx=0;entryDy=0;" edge="1" parent="1" source="N9tiopGYlUA52_8RB_P--16" target="N9tiopGYlUA52_8RB_P--18">
          <mxGeometry relative="1" as="geometry" />
        </mxCell>
        <mxCell id="N9tiopGYlUA52_8RB_P--45" style="edgeStyle=orthogonalEdgeStyle;rounded=0;orthogonalLoop=1;jettySize=auto;html=1;exitX=0.75;exitY=1;exitDx=0;exitDy=0;entryX=0;entryY=0.5;entryDx=0;entryDy=0;" edge="1" parent="1" source="N9tiopGYlUA52_8RB_P--16" target="N9tiopGYlUA52_8RB_P--22">
          <mxGeometry relative="1" as="geometry" />
        </mxCell>
        <mxCell id="N9tiopGYlUA52_8RB_P--46" style="edgeStyle=orthogonalEdgeStyle;rounded=0;orthogonalLoop=1;jettySize=auto;html=1;exitX=0;exitY=0.5;exitDx=0;exitDy=0;entryX=1;entryY=0.5;entryDx=0;entryDy=0;" edge="1" parent="1" source="N9tiopGYlUA52_8RB_P--16" target="N9tiopGYlUA52_8RB_P--20">
          <mxGeometry relative="1" as="geometry" />
        </mxCell>
        <mxCell id="N9tiopGYlUA52_8RB_P--16" value="Giảng viên" style="rounded=0;whiteSpace=wrap;html=1;" vertex="1" parent="1">
          <mxGeometry x="640" y="350" width="120" height="60" as="geometry" />
        </mxCell>
        <mxCell id="N9tiopGYlUA52_8RB_P--17" value="&lt;u&gt;Mã giảng viên&lt;/u&gt;" style="ellipse;whiteSpace=wrap;html=1;" vertex="1" parent="1">
          <mxGeometry x="660" y="479.25" width="80" height="40" as="geometry" />
        </mxCell>
        <mxCell id="N9tiopGYlUA52_8RB_P--18" value="Họ tên" style="ellipse;whiteSpace=wrap;html=1;" vertex="1" parent="1">
          <mxGeometry x="520" y="440" width="80" height="40" as="geometry" />
        </mxCell>
        <mxCell id="N9tiopGYlUA52_8RB_P--20" value="học vị" style="ellipse;whiteSpace=wrap;html=1;" vertex="1" parent="1">
          <mxGeometry x="520" y="360.75" width="80" height="40" as="geometry" />
        </mxCell>
        <mxCell id="N9tiopGYlUA52_8RB_P--21" value="email" style="ellipse;whiteSpace=wrap;html=1;" vertex="1" parent="1">
          <mxGeometry x="800" y="360" width="80" height="39.25" as="geometry" />
        </mxCell>
        <mxCell id="N9tiopGYlUA52_8RB_P--22" value="Khoa" style="ellipse;whiteSpace=wrap;html=1;" vertex="1" parent="1">
          <mxGeometry x="800" y="440.75" width="80" height="39.25" as="geometry" />
        </mxCell>
        <mxCell id="N9tiopGYlUA52_8RB_P--23" value="học kì" style="ellipse;whiteSpace=wrap;html=1;" vertex="1" parent="1">
          <mxGeometry x="39" y="439.25" width="80" height="40" as="geometry" />
        </mxCell>
        <mxCell id="N9tiopGYlUA52_8RB_P--24" value="&lt;u&gt;Mã lớp học phần&lt;/u&gt;" style="ellipse;whiteSpace=wrap;html=1;" vertex="1" parent="1">
          <mxGeometry x="39" y="360" width="80" height="40" as="geometry" />
        </mxCell>
        <mxCell id="N9tiopGYlUA52_8RB_P--25" value="năm học" style="ellipse;whiteSpace=wrap;html=1;" vertex="1" parent="1">
          <mxGeometry x="320" y="440" width="80" height="39.25" as="geometry" />
        </mxCell>
        <mxCell id="N9tiopGYlUA52_8RB_P--26" value="phòng học" style="ellipse;whiteSpace=wrap;html=1;" vertex="1" parent="1">
          <mxGeometry x="319" y="360.75" width="80" height="39.25" as="geometry" />
        </mxCell>
        <mxCell id="N9tiopGYlUA52_8RB_P--47" value="" style="endArrow=none;html=1;rounded=0;entryX=0.5;entryY=1;entryDx=0;entryDy=0;exitX=0.5;exitY=0;exitDx=0;exitDy=0;" edge="1" parent="1" source="N9tiopGYlUA52_8RB_P--27" target="N9tiopGYlUA52_8RB_P--2">
          <mxGeometry width="50" height="50" relative="1" as="geometry">
            <mxPoint x="220" y="180" as="sourcePoint" />
            <mxPoint x="440" y="150" as="targetPoint" />
          </mxGeometry>
        </mxCell>
        <mxCell id="N9tiopGYlUA52_8RB_P--53" value="Được&amp;nbsp;&lt;div&gt;phụ trách&lt;/div&gt;" style="rhombus;whiteSpace=wrap;html=1;" vertex="1" parent="1">
          <mxGeometry x="420" y="240" width="80" height="80" as="geometry" />
        </mxCell>
        <mxCell id="N9tiopGYlUA52_8RB_P--57" value="" style="endArrow=none;html=1;rounded=0;entryX=1;entryY=0;entryDx=0;entryDy=0;exitX=0;exitY=0.5;exitDx=0;exitDy=0;" edge="1" parent="1" source="N9tiopGYlUA52_8RB_P--53" target="N9tiopGYlUA52_8RB_P--4">
          <mxGeometry width="50" height="50" relative="1" as="geometry">
            <mxPoint x="390" y="430" as="sourcePoint" />
            <mxPoint x="440" y="380" as="targetPoint" />
          </mxGeometry>
        </mxCell>
        <mxCell id="N9tiopGYlUA52_8RB_P--74" value="" style="endArrow=none;html=1;rounded=0;entryX=0.5;entryY=1;entryDx=0;entryDy=0;exitX=0.5;exitY=0;exitDx=0;exitDy=0;" edge="1" parent="1" source="N9tiopGYlUA52_8RB_P--4" target="N9tiopGYlUA52_8RB_P--27">
          <mxGeometry width="50" height="50" relative="1" as="geometry">
            <mxPoint x="219" y="350" as="sourcePoint" />
            <mxPoint x="220" y="129" as="targetPoint" />
          </mxGeometry>
        </mxCell>
        <mxCell id="N9tiopGYlUA52_8RB_P--27" value="Đăng ký" style="shape=process;whiteSpace=wrap;html=1;backgroundOutline=1;" vertex="1" parent="1">
          <mxGeometry x="160" y="200" width="120" height="60" as="geometry" />
        </mxCell>
        <mxCell id="N9tiopGYlUA52_8RB_P--75" value="" style="endArrow=none;html=1;rounded=0;entryX=1;entryY=0.5;entryDx=0;entryDy=0;exitX=0;exitY=0;exitDx=0;exitDy=0;" edge="1" parent="1" source="N9tiopGYlUA52_8RB_P--16" target="N9tiopGYlUA52_8RB_P--53">
          <mxGeometry width="50" height="50" relative="1" as="geometry">
            <mxPoint x="622" y="280" as="sourcePoint" />
            <mxPoint x="470" y="339" as="targetPoint" />
          </mxGeometry>
        </mxCell>
        <mxCell id="N9tiopGYlUA52_8RB_P--78" value="Thuộc" style="rhombus;whiteSpace=wrap;html=1;" vertex="1" parent="1">
          <mxGeometry x="-60" y="240" width="80" height="80" as="geometry" />
        </mxCell>
        <mxCell id="N9tiopGYlUA52_8RB_P--79" value="" style="endArrow=none;html=1;rounded=0;entryX=1;entryY=0.5;entryDx=0;entryDy=0;exitX=0;exitY=0;exitDx=0;exitDy=0;" edge="1" parent="1" source="N9tiopGYlUA52_8RB_P--4" target="N9tiopGYlUA52_8RB_P--78">
          <mxGeometry width="50" height="50" relative="1" as="geometry">
            <mxPoint x="471" y="310" as="sourcePoint" />
            <mxPoint x="330" y="380" as="targetPoint" />
          </mxGeometry>
        </mxCell>
        <mxCell id="N9tiopGYlUA52_8RB_P--80" value="" style="endArrow=none;html=1;rounded=0;entryX=0;entryY=0.5;entryDx=0;entryDy=0;exitX=1;exitY=0;exitDx=0;exitDy=0;" edge="1" parent="1" source="N9tiopGYlUA52_8RB_P--1" target="N9tiopGYlUA52_8RB_P--78">
          <mxGeometry width="50" height="50" relative="1" as="geometry">
            <mxPoint x="289" y="390" as="sourcePoint" />
            <mxPoint x="150" y="320" as="targetPoint" />
          </mxGeometry>
        </mxCell>
        <mxCell id="N9tiopGYlUA52_8RB_P--81" value="1" style="text;html=1;whiteSpace=wrap;strokeColor=none;fillColor=none;align=center;verticalAlign=middle;rounded=0;" vertex="1" parent="1">
          <mxGeometry x="-240" y="320" width="60" height="30" as="geometry" />
        </mxCell>
        <mxCell id="N9tiopGYlUA52_8RB_P--82" value="N" style="text;html=1;whiteSpace=wrap;strokeColor=none;fillColor=none;align=center;verticalAlign=middle;rounded=0;" vertex="1" parent="1">
          <mxGeometry x="130" y="320" width="60" height="30" as="geometry" />
        </mxCell>
        <mxCell id="N9tiopGYlUA52_8RB_P--83" value="N" style="text;html=1;whiteSpace=wrap;strokeColor=none;fillColor=none;align=center;verticalAlign=middle;rounded=0;" vertex="1" parent="1">
          <mxGeometry x="250" y="320" width="60" height="30" as="geometry" />
        </mxCell>
        <mxCell id="N9tiopGYlUA52_8RB_P--85" value="1" style="text;html=1;whiteSpace=wrap;strokeColor=none;fillColor=none;align=center;verticalAlign=middle;rounded=0;" vertex="1" parent="1">
          <mxGeometry x="610" y="320" width="60" height="30" as="geometry" />
        </mxCell>
        <mxCell id="N9tiopGYlUA52_8RB_P--87" value="N" style="text;html=1;whiteSpace=wrap;strokeColor=none;fillColor=none;align=center;verticalAlign=middle;rounded=0;" vertex="1" parent="1">
          <mxGeometry x="200" y="170" width="60" height="30" as="geometry" />
        </mxCell>
        <mxCell id="N9tiopGYlUA52_8RB_P--88" value="N" style="text;html=1;whiteSpace=wrap;strokeColor=none;fillColor=none;align=center;verticalAlign=middle;rounded=0;" vertex="1" parent="1">
          <mxGeometry x="200" y="260" width="60" height="30" as="geometry" />
        </mxCell>
        <mxCell id="N9tiopGYlUA52_8RB_P--90" value="1" style="text;html=1;whiteSpace=wrap;strokeColor=none;fillColor=none;align=center;verticalAlign=middle;rounded=0;" vertex="1" parent="1">
          <mxGeometry x="200" y="320" width="60" height="30" as="geometry" />
        </mxCell>
        <mxCell id="N9tiopGYlUA52_8RB_P--91" value="1" style="text;html=1;whiteSpace=wrap;strokeColor=none;fillColor=none;align=center;verticalAlign=middle;rounded=0;" vertex="1" parent="1">
          <mxGeometry x="200" y="129.25" width="60" height="30" as="geometry" />
        </mxCell>
      </root>
    </mxGraphModel>
  </diagram>
</mxfile>
